<?xml version="1.0" encoding="UTF-8"?>
<svg id="Layer_2" data-name="Layer 2" xmlns="http://www.w3.org/2000/svg" viewBox="0 0 215.61 209.8">
  <defs>
    <style>
      .cls-1 {
        fill: #231f20;
      }

      .cls-2 {
        fill: #93cc80;
      }

      .cls-3 {
        fill: #245f29;
      }

      .cls-4 {
        fill: #438c43;
      }

      .cls-5 {
        fill: #509f4d;
      }

      .cls-6 {
        fill: #f0efef;
      }
    </style>
  </defs>
  <g id="Layer_1-2" data-name="Layer 1">
    <g id="kikker-in-je-bil">
      <g>
        <g>
          <path class="cls-4" d="M184.72,158.26c3.21-1.6,6.46-3.22,9.96-3.99s7.34-.62,10.45,1.16,5.27,5.44,4.63,8.96c-.46,2.53-2.2,4.61-3.94,6.49-6.87,7.42-14.86,13.8-23.62,18.86,4.86-1.66,10.17-.54,15.18.59,5.13,1.16,10.26,2.32,15.38,3.48,1.29.29,2.89.96,2.85,2.28-.03.88-.87,1.55-1.74,1.69s-1.74-.11-2.58-.36c-6.26-1.88-12.53-3.76-18.79-5.65,4.37,1.94,8.73,3.88,13.1,5.82,1.16.52,2.55,1.49,2.18,2.71-.25.82-1.26,1.2-2.11,1.05s-1.56-.68-2.27-1.16c-5.98-4.13-13.33-6.26-20.6-5.97,3.31,1,6.62,2,9.93,3,.65.2,1.36.45,1.66,1.06.48.98-.61,2.14-1.7,2.18s-2.07-.6-2.99-1.19c-4.2-2.69-8.86-4.67-13.72-5.82-.82-.2-1.68-.38-2.38-.84s-1.24-1.31-1.08-2.14c.14-.72.73-1.25,1.28-1.72,7.97-6.83,15.19-14.51,21.51-22.89-3.24,2.92-6.66,5.64-10.23,8.14-1.83,1.28-4.26,2.53-6.18,1.38-1.91-1.14-1.96-3.89-1.44-6.05,1.14-4.65,3.96-8.88,7.82-11.72"/>
          <path class="cls-3" d="M199.27,164.41c-4.85,3.23-9.3,7.37-12.08,12.49-.59-.78-.67-1.85-.42-2.79s.8-1.78,1.4-2.55c2.75-3.55,6.74-6.11,11.1-7.15"/>
        </g>
        <path class="cls-2" d="M131.78,184.91c3.56,3.23,8.49,4.62,13.3,4.77s9.57-.83,14.28-1.81c4.41-.91,8.99-1.9,12.55-4.66,3.58-2.77,5.7-6.98,7.69-11.04,1.19-2.43,2.42-5.03,2.08-7.72-.35-2.77-2.29-5.04-4.15-7.12-2.05-2.3-4.17-4.66-6.95-5.98-1.78-.85-3.75-1.23-5.69-1.6-3.69-.7-7.38-1.41-11.06-2.11-4.38-.84-8.79-1.68-13.24-1.73-4.46-.06-9.02.71-12.89,2.92-3.88,2.2-7,5.96-7.77,10.36-.8,4.58.95,9.17,2.66,13.49,1.73,4.36,3.67,8.98,7.57,11.58"/>
        <path class="cls-5" d="M178.71,132.22c-2.73,3.35-2.36,8.38-.47,12.26,1.89,3.89,5.04,6.99,7.79,10.32,2.75,3.33,5.23,7.22,5.36,11.54.12,4.17-1.99,8.08-4.47,11.43s-5.42,6.4-7.41,10.06-2.9,8.25-1.06,11.99c.76,1.54,1.95,2.88,2.47,4.52s.06,3.83-1.57,4.38c-1.01-2.99-2.02-5.99-3.03-8.98-.56-1.67-1.48-3.63-3.24-3.77-1.59-.13-2.79,1.35-3.69,2.66-2.53,3.72-5.06,7.44-7.59,11.16-1.41-1.11-1.48-3.32-.71-4.94s2.17-2.84,3.43-4.13,2.45-2.8,2.62-4.59-1.16-3.8-2.96-3.74c-.64.02-1.25.3-1.83.57-2.33,1.07-4.65,2.15-6.98,3.22-1.59.74-3.69,1.39-4.91.13-1.3-1.34-.25-3.75,1.42-4.58s3.63-.64,5.49-.74c5.16-.28,10.11-3.1,13-7.38.87-1.29,1.55-2.69,2.24-4.09,2.34-4.8,4.68-9.6,7.03-14.4-8.42-7.64-14.08-18.25-15.74-29.49,4.82-1.65,9.65-3.3,14.47-4.95"/>
        <path class="cls-5" d="M188.85,116.71c.18.05-1.42-4.37-.89-6.78.53-2.41,1.61-4.7,1.86-7.16.41-4.04-1.67-8.23-5.15-10.34-3.47-2.1-8.15-2.01-11.54.22-1.8,1.19-3.18,2.96-4,4.95-2.77-2.8-21.53-7.33-30.93-5.4-.35-2.23-1.37-4.35-2.96-5.96-2.86-2.88-7.43-3.93-11.25-2.57-3.83,1.35-6.73,5.03-7.15,9.07-.25,2.45.34,4.92.36,7.38.01,1.26-.17,2.59-.64,3.76-3.02,2.17-4.95,4.84-5.41,7.91-.88,5.77,3.59,11.74,11.36,16.53.77,3.16,1.41,6.34,1.54,9.59.18,4.5-.68,9.17-3.25,12.86,2.71,1.08,5.74,1.15,8.63.71,2.89-.44,5.68-1.35,8.48-2.18,6.25-1.86,12.72-3.34,19.23-3,6.51.34,13.13,2.7,17.52,7.52-.1-6.14.65-12.28,2.2-18.22,7.6-2.4,12.69-6.5,13.49-11.77.36-2.37-.18-4.78-1.49-7.13Z"/>
        <path class="cls-3" d="M145.81,106.48c-.41-.71-.98-.61-1.23-.56-.61.12-.97.82-.93,1.44s.36,1.19.68,1.72c.24.4.48.81.85,1.08s.89.4,1.3.18c.63-.35.6-1.29.29-1.94s-.6-1.25-.95-1.93"/>
        <path class="cls-2" d="M122.03,161.06c2.97-11.93,14.74-21.06,27.04-20.97,12.3.09,24.92,9.42,26.72,21.37-4.09.15-6.02-5.37-11.33-8.28s-11.22-2.1-17.21-1.27c-10.57,1.46-20.28,1.25-26.8,9.7"/>
        <g>
          <path class="cls-6" d="M182.4,95.03c2.44,1.35,4.27,3.77,4.9,6.49s.06,5.69-1.53,7.99c-.8,1.15-1.89,2.16-3.21,2.61-2.43.84-5.24-.38-6.78-2.44s-1.99-4.75-1.84-7.32c.13-2.31.79-4.73,2.46-6.33s4.25-2.54,5.99-1.01"/>
          <path d="M183.59,97.32c1.61,1.63,1.95,3.94,2.14,6.1s-.49,4.49-2.16,5.87-4.44,1.46-5.9-.14c-1.19-1.31-1.27-3.27-1.22-5.04.04-1.63.14-3.29.78-4.79s1.94-2.81,3.56-3.03,2.81,1.04,2.81,1.04"/>
          <path class="cls-6" d="M181.86,98.44c1.46.77,2.44,2.37,2.47,4.02,0,.59-.23,1.32-.82,1.39-.42.04-.8-.32-.92-.73s-.05-.84.02-1.26c-.9.56-2.26.1-2.63-.9s-.07-2.95,1.88-2.53"/>
          <path class="cls-3" d="M173.93,103.72c-1.36-3.48.34-6.63,1.39-7.94s2.88-2.45,4.56-2.53c1.42-.07,3.74.72,4.88,1.57,3.16,2.37,3.89,7.38,2.55,11.1-.04-1.8-.09-3.62-.54-5.36s-1.35-3.43-2.81-4.49c-1.78-1.3-4.31-1.47-6.25-.43s-3.88,5.87-3.78,8.08"/>
        </g>
        <g>
          <path class="cls-4" d="M115.4,155.28c-3.21-1.6-6.46-3.22-9.96-3.99s-7.34-.62-10.45,1.16c-3.11,1.78-5.27,5.44-4.63,8.96.46,2.53,2.2,4.61,3.94,6.49,6.87,7.42,14.86,13.8,23.62,18.86-4.86-1.66-10.17-.54-15.18.59-5.13,1.16-10.26,2.32-15.38,3.48-1.29.29-2.89.96-2.85,2.28.03.88.87,1.55,1.74,1.69s1.74-.11,2.58-.36c6.26-1.88,12.53-3.76,18.79-5.65-4.37,1.94-8.73,3.88-13.1,5.82-1.16.52-2.55,1.49-2.18,2.71.25.82,1.26,1.2,2.11,1.05s1.56-.68,2.27-1.16c5.98-4.13,13.33-6.26,20.6-5.97-3.31,1-6.62,2-9.93,3-.65.2-1.36.45-1.66,1.06-.48.98.61,2.14,1.7,2.18s2.07-.6,2.99-1.19c4.2-2.69,8.86-4.67,13.72-5.82.82-.2,1.68-.38,2.38-.84s1.24-1.31,1.08-2.14c-.14-.72-.73-1.25-1.28-1.72-7.97-6.83-15.19-14.51-21.51-22.89,3.24,2.92,6.66,5.64,10.23,8.14,1.83,1.28,4.26,2.53,6.18,1.38,1.91-1.14,1.96-3.89,1.44-6.05-1.14-4.65-3.96-8.88-7.82-11.72"/>
          <path class="cls-3" d="M100.85,161.43c4.85,3.23,9.3,7.37,12.08,12.49.59-.78.67-1.85.42-2.79s-.8-1.78-1.4-2.55c-2.75-3.55-6.74-6.11-11.1-7.15"/>
        </g>
        <path class="cls-5" d="M144.86,192.6c-1.03-.42-2.18-.41-3.29-.55-3.15-.4-6.11-2.14-8-4.69-.84-1.13-1.53-2.47-2.78-3.13-.33-.17-.67-.29-1.03-.35.04-.41.04-.82,0-1.23-.18-2.17-1.2-4.17-2.19-6.1-2.57-5.01-5.14-10.02-7.71-15.02,7.76-8.49,13.28-18.74,18.71-28.88-5.75-1.92-11.51-3.83-17.26-5.75l-.22.53c2.73,3.04,2.9,8.12,1.38,11.9-1.52,3.79-4.33,6.89-6.99,9.98-2.66,3.09-5.3,6.4-6.35,10.34-1.11,4.19-.28,8.71,1.45,12.69,1.74,3.97,4.34,7.5,6.92,10.99,1.18,1.59,2.39,3.22,4.04,4.3.51.33,1.07.61,1.66.8-.5,4.07-2.25,7.97-4.95,11.05-.4.46-.84.91-1.07,1.48-.23.57-.21,1.29.23,1.71.51.49,1.39.39,1.96-.03.57-.42.91-1.08,1.23-1.71,1.16-2.31,2.33-4.62,3.49-6.93.5-.98,1.23-2.11,2.33-2.07,1.36.06,1.88,1.79,2.03,3.14.37,3.4.73,6.79,1.1,10.19.09.79.18,1.62.6,2.3.42.68,1.26,1.18,2.02.94.65-.2,1.06-.88,1.15-1.55.1-.67-.06-1.35-.22-2.01-.57-2.4-1.15-4.79-1.72-7.19-.38-1.58-.71-3.42.3-4.7.89-1.13,2.56-1.38,3.94-.97,1.38.41,2.53,1.35,3.63,2.27,1.1.92,2.24,1.87,3.6,2.32,1.45.47,3.48-.01,3.74-1.52.19-1.1-.71-2.13-1.74-2.55Z"/>
        <path class="cls-3" d="M157.83,108.54c.41-.71.98-.61,1.23-.56.61.12.97.82.93,1.44s-.36,1.19-.68,1.72c-.24.4-.48.81-.85,1.08s-.89.4-1.3.18c-.63-.35-.6-1.29-.29-1.94s.6-1.25.95-1.93"/>
        <path class="cls-3" d="M183.76,124.52c-1.7-.03-4.58-.55-6.25-1.15-8.96-3.27-18.6-5.05-27.95-5.95-9.35-.9-18.49-.96-27.59-1.01-.01,0-.02,0-.04-.02-1.8-.1-4.05.28-4.85-1.1-.17-.29-1.27-2.12-.59-2.68s2.5,1.29,2.71,1.42c3.95,2.37,14.07,1.12,19.28,1.47,12.73.85,25.97,1.81,38.35,6.09,2.72.94,4.49,1.26,6.89.03,1.41-.72,1.73,2.94.03,2.91Z"/>
        <g>
          <path class="cls-6" d="M130.01,87.57c1.9,2.05,2.88,4.92,2.63,7.7s-1.72,5.43-3.95,7.11c-1.12.84-2.47,1.46-3.87,1.48-2.57.04-4.85-2-5.67-4.44s-.4-5.14.55-7.52c.85-2.16,2.23-4.24,4.32-5.24s4.84-1.08,6.01.92"/>
          <path d="M130.42,90.12c1.02,2.05.62,4.35.12,6.46s-1.87,4.12-3.89,4.9c-2.02.78-4.67,0-5.56-1.98-.72-1.62-.18-3.5.42-5.17.55-1.53,1.16-3.09,2.24-4.3s2.72-2.06,4.33-1.76,2.34,1.86,2.34,1.86"/>
          <path class="cls-6" d="M128.43,90.64c1.15,1.19,1.58,3.02,1.08,4.59-.18.56-.64,1.18-1.22,1.06-.41-.09-.66-.55-.65-.98s.22-.81.42-1.19c-1.03.25-2.18-.61-2.22-1.67s.86-2.83,2.58-1.81"/>
          <path class="cls-3" d="M119.24,93.17c-.2-3.73,2.4-6.19,3.81-7.1s3.5-1.42,5.12-.98c1.37.38,3.33,1.85,4.14,3.02,2.26,3.24,1.38,8.23-1.06,11.34.52-1.72,1.05-3.46,1.17-5.26s-.21-3.68-1.26-5.14c-1.29-1.79-3.64-2.75-5.81-2.36s-5.53,4.36-6.12,6.49"/>
        </g>
      </g>
      <g>
        <path class="cls-1" d="M22.12,61.54c18.3-4.46,33.26-18.19,39.31-36.01,1.52-4.48,2.45-9.16,2.77-13.88.31-4.41-.41-10.45-5.71-11.52-4.64-.94-7.05,3.51-7.97,7.31-1.28,5.32-2.29,10.72-3.25,16.1-2.16,12.17-3.68,24.46-4.58,36.79-.18,2.43,3.51,2.36,3.75,0,.43-4.23,1.49-8.42,3.11-12.35.75-1.83,1.63-3.65,2.68-5.32.86-1.37,2.03-2.84,3.7-3.16,1.28-.25,2.61.21,2.84,1.63.27,1.68-.87,3.13-2.02,4.19-1.28,1.17-3.12,2.66-4.81,3.11-.47.12-.99.25-1.33-.13-.21-.23-.12-.5-.27-.41l-2.57-.67c2.53,5.78,7.23,10.75,13.22,12.94,2.89,1.05,6.14,1.4,9.11.5s5.43-2.7,7.42-4.92c2.21-2.46,3.89-5.4,4.82-8.57l-3.62-1c-.3,2.21-1.58,4.24-1.46,6.52.11,2.11,1.43,4.11,3.04,5.42,3.43,2.79,8.1,2.63,11.67.15s6.07-6.51,8.11-10.42c2.31-4.43,4.2-9.08,5.63-13.86s2.36-9.58,2.87-14.48c.26-2.51.41-5.04.42-7.57,0-1.95-.1-4.07-1.28-5.71s-3.25-2.3-5.08-1.46c-1.71.78-2.65,2.6-3.11,4.34-.63,2.35-.57,4.93-.74,7.34-.2,2.73-.4,5.46-.6,8.2-.91,12.5-1.83,25-2.74,37.51h3.75c-.17-5.4,1.27-11.38,3.97-16.07.53-.92,1.12-1.78,1.89-2.51.29-.27.43-.4.89-.64.16-.08.48-.15.54-.16.26-.01.51.07.59.11.57.27.85.79,1.12,1.38.44.97.36,1.88-.21,2.76-1.73,2.69-5.57,3.97-8.5,4.7-1.34.34-1.85,2.18-.83,3.13,4.32,4.05,9.88,8.01,15.91,4.91,5.16-2.65,7.58-8.84,9.89-13.79,2.86-6.15,5.61-12.44,7.09-19.09.98-4.4,1.62-8.94,1.81-13.44.08-1.98.07-3.98-.28-5.94-.25-1.38-.79-2.93-2.07-3.68-2.47-1.47-4.47.77-5.37,2.84-1.3,2.98-1.94,6.24-2.52,9.42-.85,4.58-1.45,9.2-1.95,13.83-1.19,10.88-1.94,21.9-1.68,32.85.05,2.1,3.1,2.57,3.68.5.95-3.38.31-6.73.14-10.16-.14-2.63,0-6.18,2.74-7.49.8-.38,2.06-.68,2.82,0,.8.72-.24,2.06-.67,2.73-1.48,2.31-4.09,3.53-6.6,4.42-1.35.48-1.82,2.04-.83,3.13,4.23,4.67,12.54,6.22,18.32,3.93,2.91-1.15,5.16-3.45,6.98-5.93,1.68-2.27,3.26-5.25,3.1-8.16s-2.61-5.62-5.68-5.34c-3.28.3-4.54,4.27-5,7.01-.54,3.21.5,7.09,2.21,9.82,1.81,2.89,5.05,4.17,8.38,3.74,3.91-.51,7.31-2.95,9.13-6.43,2.21-4.24,2.37-9.14,2.41-13.82l-1.88,1.88c3.25.16,6.5.32,9.74.47l-.95-3.49c-5.42,3.55-6.99,11.58-2.93,16.76s12.3,5.5,16.98,1.07c1.76-1.66-.9-4.31-2.65-2.65-3.06,2.9-8.71,2.68-11.38-.69s-1.67-8.92,1.88-11.25c1.57-1.03.94-3.4-.95-3.49-3.25-.16-6.5-.32-9.74-.47-1.02-.05-1.87.9-1.88,1.88-.05,5.44-.05,12.9-5.67,15.75-1.89.96-4.49,1.34-6.28-.03s-2.42-4.12-2.71-6.16c-.14-.96-.12-1.88.11-2.82s.48-2.51,1.27-3.17c1.05-.88,1.9,1.21,1.86,1.91-.13,2.11-1.35,4.14-2.59,5.8s-2.79,3.28-4.66,4.16c-4.49,2.1-11.43.75-14.75-2.92l-.83,3.13c3.7-1.32,7.11-3.16,9.15-6.65,1-1.71,1.7-3.85.64-5.7-.96-1.67-2.92-2.55-4.79-2.55-4.11,0-7.1,3.44-7.79,7.27-.8,4.49.99,9.12-.24,13.53l3.68.5c-.21-8.85.29-17.73,1.06-26.55.7-7.96,1.51-16.05,3.43-23.82.31-1.27.67-2.51,1.12-3.74.04-.12.09-.24.14-.35.11-.28-.18.4,0-.01.09-.19.18-.39.28-.58.09-.17.19-.32.28-.49.29-.52-.17.1.11-.14.35-.31-.14.07-.03,0,.29-.18-.56.14.03.01-.31.07-.29.08-.59-.06.32.16-.29-.09-.07-.06,0,0-.15-.3.04.07.23.44.02-.14.17.39.08.29.16.58.22.88.14.69.17,1.31.21,2.17.33,9.08-1.97,18.41-5.37,26.75-1.39,3.4-2.96,6.72-4.53,10.04-1.17,2.48-2.44,5.03-4.3,7.07-1.66,1.82-3.83,3.16-6.39,2.77-3.06-.47-5.56-2.88-7.72-4.9l-.83,3.13c3.6-.91,7.64-2.52,10.05-5.48s2.27-7.84-1.22-10.02c-6.23-3.89-10.5,5.87-11.93,10.24-1.26,3.84-2.07,8.01-1.94,12.07.08,2.43,3.58,2.39,3.75,0,.69-9.44,1.38-18.88,2.07-28.32.35-4.8.7-9.6,1.05-14.41.17-2.32.34-4.64.51-6.95.09-1.22.12-3.21,1.13-4.11.78-.7,1.1.86,1.2,1.44.32,1.83.09,3.87,0,5.71-.22,4.22-.81,8.4-1.75,12.52-1.81,7.95-4.8,16.18-9.48,22.92-1.93,2.78-5.13,6.2-8.9,5.42-1.65-.34-3.36-1.6-3.89-3.25-.59-1.84.96-4.11,1.21-5.95.31-2.31-2.92-3.39-3.62-1-1.61,5.51-6.56,11.63-12.84,11.25-6.87-.42-12.27-6.14-14.88-12.09-.41-.94-1.76-1.12-2.57-.67-1.67.93-2.16,2.9-1.51,4.63.68,1.82,2.33,3.02,4.3,3.01,2.46-.01,4.62-1.58,6.52-2.99,1.78-1.33,3.43-2.86,4.27-4.97,1.64-4.15-.94-8.93-5.7-8.63s-7.36,4.72-9.2,8.62c-2.4,5.07-3.85,10.45-4.42,16.03h3.75c.72-9.89,1.84-19.74,3.39-29.54.78-4.9,1.66-9.78,2.64-14.64.5-2.47,1.01-4.94,1.58-7.39.33-1.44.71-3.14,1.75-4.26,1.15-1.23,2.72-.71,3.67.51,1.28,1.64,1.12,4.07,1.01,6.02-.24,4.25-1.06,8.46-2.35,12.51-2.56,8.05-7.1,15.42-13.17,21.29-6.62,6.4-14.91,10.92-23.85,13.1-2.34.57-1.35,4.19,1,3.62h0Z"/>
        <path class="cls-1" d="M81.94,30.91c2.41,0,2.42-3.75,0-3.75s-2.42,3.75,0,3.75h0Z"/>
      </g>
      <g>
        <g>
          <path class="cls-1" d="M5.38,113.2c3.06-1.31,5.6-3.37,7.3-6.25s2.66-6.19,3.91-9.29l-3.62-1c-.85,2.17-1.53,4.39-1.97,6.68-.39,2.03-1,4.59.58,6.28,2.82,3,7.45.79,9.76-1.68,1.34-1.43,2.33-3.13,3.34-4.8.87-1.44,1.82-3.17,3.28-4.11.14-.09.78-.22.47-.41.17.11.24.57.27.73.13.8-.04,1.66-.17,2.45-.39,2.32-1.01,4.58-1.82,6.78l3.62,1c.71-3.52,1.92-6.91,3.75-10.02.33-.57.75-1.44,1.42-1.69.1-.04.31-.1.43-.07.16.05.03-.13.12.34.33,1.74-.05,3.62-.28,5.34-.42,3.12-.86,7.16,2.48,8.84,2.95,1.48,7.03.83,10.04-.06,2.31-.68,1.33-4.3-1-3.62-1.88.55-3.79.82-5.75.69-1.59-.11-2.28-.56-2.32-2.18-.05-2,.39-3.97.58-5.96.16-1.75.28-3.96-.73-5.49-.94-1.42-2.81-1.95-4.42-1.5-1.76.49-2.92,1.95-3.81,3.46-1.98,3.36-3.36,7.1-4.13,10.91-.48,2.38,2.78,3.26,3.62,1s1.44-4.47,1.82-6.78c.31-1.85.6-3.8-.22-5.57-.77-1.65-2.48-2.52-4.27-2.13-2,.43-3.57,2.28-4.72,3.85-1.95,2.67-3.33,6.91-6.72,8.12-.43.15-1.51.45-1.87,0-.39-.49.17-2.21.27-2.75.44-2.29,1.11-4.52,1.97-6.68.37-.95-.41-2.05-1.31-2.31-1.07-.3-1.93.37-2.31,1.31-1.09,2.72-1.94,5.6-3.39,8.15s-3.49,4.04-6.1,5.15c-.94.4-1.13,1.76-.67,2.57.55.97,1.64,1.07,2.57.67h0Z"/>
          <path class="cls-1" d="M63.21,104.2c4.85-2.02,8.86-5.53,11.29-10.21l-3.49-.95c-.64,5.26-1.28,10.52-1.92,15.77-.31,2.55-.62,5.09-.93,7.64-.23,1.89-.35,4.01-1.35,5.68-1.83,3.03-6.18,1.27-6.63-1.85-.66-4.66,4.48-6.79,7.87-8.45,4.07-1.99,8.29-3.59,12.52-5.2,2.94-1.12,6.39-2.32,8.53-4.77,2.32-2.65,1.78-5.93-.23-8.6-1.48-1.96-3.5-1.85-5.5-.65-1.8,1.09-3.52,2.47-4.8,4.14-1.52,1.98-2.36,4.48-1.96,6.98s2.11,4.47,4.17,5.75c3.74,2.32,8.9,2.17,12.46-.43.82-.6,1.21-1.62.67-2.57-.46-.81-1.75-1.27-2.57-.67-2.65,1.94-6.46,2.16-9.15.11-4.01-3.05-.89-7.4,2.27-9.56.36-.24.71-.5,1.1-.7.07-.04.5-.19.53-.24-.15.24-.32-.54-.33-.1,0,.18.53.76.65.96.19.33.34.64.44,1,.24.86,0,1.47-.65,2.17-1.98,2.1-5.3,3.04-7.92,4.02-4.18,1.56-8.32,3.23-12.33,5.2-3.74,1.84-7.85,3.9-9.15,8.19-1.1,3.61.19,7.88,3.67,9.66s7.42.85,9.5-2.38c1.17-1.82,1.49-4.03,1.76-6.13.35-2.75.67-5.5,1-8.25.68-5.59,1.36-11.17,2.04-16.76.23-1.87-2.68-2.52-3.49-.95-1.95,3.76-5.11,6.85-9.05,8.49-.93.39-1.61,1.24-1.31,2.31.25.88,1.36,1.7,2.31,1.31h0Z"/>
        </g>
        <path class="cls-1" d="M15.88,85.46c2.41,0,2.42-3.75,0-3.75s-2.42,3.75,0,3.75h0Z"/>
        <path class="cls-1" d="M74.48,83.64c2.41,0,2.42-3.75,0-3.75s-2.42,3.75,0,3.75h0Z"/>
      </g>
      <g>
        <path class="cls-1" d="M2.54,183.9c11.76-3.9,21.58-12.57,27.18-23.59,1.39-2.73,2.5-5.6,3.28-8.56.86-3.28,1.09-7.13-1.84-9.48s-6.59-1.16-8.38,1.79c-.88,1.45-1.23,3.07-1.56,4.71-.41,2.08-.81,4.17-1.21,6.25-1.76,9.08-3.52,18.17-5.28,27.25l3.53.75c.59-5.41,2.38-13.81,9.19-14.36,2.63-.21,4.83,1.16,5.32,3.82s-.66,5.24-2.52,7.04c-2.11,2.04-5,3.14-7.81,3.79-1.05.24-2.88.69-3.83-.09-.55-.45-.73-1.67.14-1.87,1.11-.25,2.77,1.21,3.72,1.69,1.42.72,2.99,1.24,4.56,1.52,3,.53,6.19.31,9.05-.79,6.3-2.41,10.52-8.75,10.46-15.48-.01-1.56-2.86-3.2-3.44-1.17-1.4,4.87-2.45,10.51,1.65,14.41,1.63,1.55,3.84,2.31,6.08,1.95,2.38-.38,4.33-1.88,5.98-3.55,3.41-3.47,6.08-7.87,8.22-12.21s3.74-9.19,4.69-14.06c.47-2.4.77-4.83.9-7.27s.07-5.13-2.05-6.75c-1.94-1.49-4.45-1.18-5.84.87s-2.3,4.61-3.12,6.93c-1.7,4.8-2.69,9.89-2.93,14.98s.08,10.29,1.64,15.05c1.69,5.15,5.44,9.51,11.07,10.2,5.19.63,10.05-2.18,12.22-6.92.83-1.82-2.46-3.55-3.36-1.58-1.45,3.16-4.65,5.27-8.14,5.21-3.79-.06-6.51-2.67-7.92-6-1.54-3.61-1.93-7.83-2.02-11.71-.1-4.16.31-8.36,1.26-12.41.47-1.99,1.06-3.95,1.76-5.87s1.39-3.93,2.49-5.58c1.34-2,1.49.95,1.45,1.98-.07,2.02-.27,4.04-.58,6.04-1.21,7.85-4.28,15.45-8.83,21.95-1.25,1.78-2.57,3.6-4.15,5.1-1.33,1.27-3.31,2.72-5.26,2.2-1.64-.44-2.57-2.2-2.88-3.75-.51-2.55.32-5.21,1.02-7.65l-3.44-1.17c.06,7.26-5.54,13.6-12.9,13.9-1.73.07-3.49-.16-5.12-.76-1.79-.66-3.3-1.9-5.13-2.46-1.63-.5-3.6-.27-4.63,1.23-.87,1.27-.74,3-.09,4.34,1.75,3.62,6.09,3.47,9.42,2.62s6.78-2.45,9.15-5.13c4.63-5.23,3-14.53-4.52-15.87-4.06-.72-7.92,1.16-10.4,4.34-2.78,3.57-3.59,8.12-4.07,12.51-.22,2,3.1,2.97,3.53.75,1.38-7.14,2.77-14.28,4.15-21.41.69-3.57,1.38-7.14,2.08-10.71.27-1.4.5-2.85,1.09-4.17.48-1.06,1.73-2.68,3.12-2.31,2.64.72,1.05,5.53.56,7.15-.78,2.58-1.8,5.08-3.04,7.47-2.45,4.73-5.85,9.07-9.82,12.61-4.48,3.99-9.7,7.09-15.4,8.98-2.16.72-.32,3.87,1.57,3.25h0Z"/>
        <path class="cls-1" d="M45.36,154.24c2.41,0,2.42-3.75,0-3.75s-2.42,3.75,0,3.75h0Z"/>
      </g>
    </g>
  </g>
</svg>